<svg width="24" height="24" viewBox="0 0 24 24" fill="none" xmlns="http://www.w3.org/2000/svg">
<path fill-rule="evenodd" clip-rule="evenodd" d="M7.95842 0.349121H16.6152C20.5987 0.349121 23.8292 3.57954 23.8292 7.5631V16.2199C23.8292 20.2034 20.5987 23.4338 16.6152 23.4338H7.95842C3.97486 23.4338 0.744446 20.2034 0.744446 16.2199V7.5631C0.744446 3.57954 3.97486 0.349121 7.95842 0.349121ZM16.6152 21.2697C19.3998 21.2697 21.665 19.0045 21.665 16.2199V7.5631C21.665 4.7785 19.3998 2.51331 16.6152 2.51331H7.95842C5.17382 2.51331 2.90863 4.7785 2.90863 7.5631V16.2199C2.90863 19.0045 5.17382 21.2697 7.95842 21.2697H16.6152Z" fill="white"/>
<path fill-rule="evenodd" clip-rule="evenodd" d="M6.51556 11.8913C6.51556 8.70416 9.09961 6.12012 12.2867 6.12012C15.4739 6.12012 18.0579 8.70416 18.0579 11.8913C18.0579 15.0784 15.4739 17.6625 12.2867 17.6625C9.09961 17.6625 6.51556 15.0784 6.51556 11.8913ZM8.67975 11.8913C8.67975 13.8795 10.2986 15.4983 12.2867 15.4983C14.2749 15.4983 15.8937 13.8795 15.8937 11.8913C15.8937 9.90168 14.2749 8.28431 12.2867 8.28431C10.2986 8.28431 8.67975 9.90168 8.67975 11.8913Z" fill="white"/>
<ellipse cx="18.4908" cy="5.68747" rx="0.769043" ry="0.76901" fill="white"/>
</svg>
