<svg width="24" height="20" viewBox="0 0 24 20" fill="none" xmlns="http://www.w3.org/2000/svg">
<path d="M23.7723 2.66822C22.9138 3.04479 21.9991 3.29439 21.0454 3.41558C22.0265 2.82981 22.7753 1.90931 23.1273 0.799796C22.2126 1.34517 21.2026 1.7304 20.1263 1.94538C19.2577 1.02054 18.0198 0.447754 16.6694 0.447754C14.0492 0.447754 11.9399 2.57443 11.9399 5.18156C11.9399 5.55669 11.9716 5.91739 12.0495 6.26078C8.11499 6.06888 4.6335 4.18315 2.29472 1.31055C1.88641 2.01896 1.6469 2.82981 1.6469 3.7027C1.6469 5.34171 2.49094 6.79461 3.74907 7.63576C2.98871 7.62133 2.24278 7.40058 1.61083 7.05287C1.61083 7.0673 1.61083 7.08605 1.61083 7.10481C1.61083 9.40463 3.2513 11.3149 5.40252 11.7549C5.01729 11.8603 4.59743 11.9108 4.16171 11.9108C3.85872 11.9108 3.55284 11.8934 3.26573 11.83C3.87892 13.7042 5.61894 15.082 7.68792 15.1268C6.07775 16.3863 4.0333 17.1452 1.82004 17.1452C1.43192 17.1452 1.05968 17.1279 0.687439 17.0803C2.78383 18.4322 5.26834 19.2041 7.94762 19.2041C16.6564 19.2041 21.4176 11.9901 21.4176 5.73704C21.4176 5.52784 21.4104 5.32584 21.4003 5.1253C22.3396 4.45872 23.1288 3.62623 23.7723 2.66822Z" fill="white"/>
</svg>
